<mxfile host="app.diagrams.net" modified="2022-03-30T08:56:35.945Z" agent="5.0 (Windows NT 10.0; Win64; x64) AppleWebKit/537.36 (KHTML, like Gecko) Chrome/99.0.4844.84 Safari/537.36" etag="w7pwdf8d9mVhuE5gZ-6g" version="17.2.5" type="github">
  <diagram id="eLYIpyiFB3aqohzdDr47" name="Page-1">
    <mxGraphModel dx="1422" dy="754" grid="1" gridSize="10" guides="1" tooltips="1" connect="1" arrows="1" fold="1" page="1" pageScale="1" pageWidth="827" pageHeight="1169" math="0" shadow="0">
      <root>
        <mxCell id="0" />
        <mxCell id="1" parent="0" />
        <mxCell id="78rXr8i9M5zQIehcSPoG-2" value="" style="shape=table;html=1;whiteSpace=wrap;startSize=0;container=1;collapsible=0;childLayout=tableLayout;" parent="1" vertex="1">
          <mxGeometry x="60" y="110" width="650" height="290" as="geometry" />
        </mxCell>
        <mxCell id="78rXr8i9M5zQIehcSPoG-3" value="" style="shape=tableRow;horizontal=0;startSize=0;swimlaneHead=0;swimlaneBody=0;top=0;left=0;bottom=0;right=0;collapsible=0;dropTarget=0;fillColor=none;points=[[0,0.5],[1,0.5]];portConstraint=eastwest;" parent="78rXr8i9M5zQIehcSPoG-2" vertex="1">
          <mxGeometry width="650" height="97" as="geometry" />
        </mxCell>
        <mxCell id="78rXr8i9M5zQIehcSPoG-4" value="" style="shape=partialRectangle;html=1;whiteSpace=wrap;connectable=0;fillColor=none;top=0;left=0;bottom=0;right=0;overflow=hidden;" parent="78rXr8i9M5zQIehcSPoG-3" vertex="1">
          <mxGeometry width="217" height="97" as="geometry">
            <mxRectangle width="217" height="97" as="alternateBounds" />
          </mxGeometry>
        </mxCell>
        <mxCell id="78rXr8i9M5zQIehcSPoG-5" value="" style="shape=partialRectangle;html=1;whiteSpace=wrap;connectable=0;fillColor=none;top=0;left=0;bottom=0;right=0;overflow=hidden;" parent="78rXr8i9M5zQIehcSPoG-3" vertex="1">
          <mxGeometry x="217" width="216" height="97" as="geometry">
            <mxRectangle width="216" height="97" as="alternateBounds" />
          </mxGeometry>
        </mxCell>
        <mxCell id="78rXr8i9M5zQIehcSPoG-6" value="" style="shape=partialRectangle;html=1;whiteSpace=wrap;connectable=0;fillColor=none;top=0;left=0;bottom=0;right=0;overflow=hidden;" parent="78rXr8i9M5zQIehcSPoG-3" vertex="1">
          <mxGeometry x="433" width="217" height="97" as="geometry">
            <mxRectangle width="217" height="97" as="alternateBounds" />
          </mxGeometry>
        </mxCell>
        <mxCell id="78rXr8i9M5zQIehcSPoG-7" value="" style="shape=tableRow;horizontal=0;startSize=0;swimlaneHead=0;swimlaneBody=0;top=0;left=0;bottom=0;right=0;collapsible=0;dropTarget=0;fillColor=none;points=[[0,0.5],[1,0.5]];portConstraint=eastwest;" parent="78rXr8i9M5zQIehcSPoG-2" vertex="1">
          <mxGeometry y="97" width="650" height="96" as="geometry" />
        </mxCell>
        <mxCell id="78rXr8i9M5zQIehcSPoG-8" value="asdfas" style="shape=partialRectangle;html=1;whiteSpace=wrap;connectable=0;fillColor=none;top=0;left=0;bottom=0;right=0;overflow=hidden;" parent="78rXr8i9M5zQIehcSPoG-7" vertex="1">
          <mxGeometry width="217" height="96" as="geometry">
            <mxRectangle width="217" height="96" as="alternateBounds" />
          </mxGeometry>
        </mxCell>
        <mxCell id="78rXr8i9M5zQIehcSPoG-9" value="asdfasdf" style="shape=partialRectangle;html=1;whiteSpace=wrap;connectable=0;fillColor=none;top=0;left=0;bottom=0;right=0;overflow=hidden;" parent="78rXr8i9M5zQIehcSPoG-7" vertex="1">
          <mxGeometry x="217" width="216" height="96" as="geometry">
            <mxRectangle width="216" height="96" as="alternateBounds" />
          </mxGeometry>
        </mxCell>
        <mxCell id="78rXr8i9M5zQIehcSPoG-10" value="asdfasdf" style="shape=partialRectangle;html=1;whiteSpace=wrap;connectable=0;fillColor=none;top=0;left=0;bottom=0;right=0;overflow=hidden;" parent="78rXr8i9M5zQIehcSPoG-7" vertex="1">
          <mxGeometry x="433" width="217" height="96" as="geometry">
            <mxRectangle width="217" height="96" as="alternateBounds" />
          </mxGeometry>
        </mxCell>
        <mxCell id="78rXr8i9M5zQIehcSPoG-11" value="" style="shape=tableRow;horizontal=0;startSize=0;swimlaneHead=0;swimlaneBody=0;top=0;left=0;bottom=0;right=0;collapsible=0;dropTarget=0;fillColor=none;points=[[0,0.5],[1,0.5]];portConstraint=eastwest;" parent="78rXr8i9M5zQIehcSPoG-2" vertex="1">
          <mxGeometry y="193" width="650" height="97" as="geometry" />
        </mxCell>
        <mxCell id="78rXr8i9M5zQIehcSPoG-12" value="" style="shape=partialRectangle;html=1;whiteSpace=wrap;connectable=0;fillColor=none;top=0;left=0;bottom=0;right=0;overflow=hidden;" parent="78rXr8i9M5zQIehcSPoG-11" vertex="1">
          <mxGeometry width="217" height="97" as="geometry">
            <mxRectangle width="217" height="97" as="alternateBounds" />
          </mxGeometry>
        </mxCell>
        <mxCell id="78rXr8i9M5zQIehcSPoG-13" value="" style="shape=partialRectangle;html=1;whiteSpace=wrap;connectable=0;fillColor=none;top=0;left=0;bottom=0;right=0;overflow=hidden;" parent="78rXr8i9M5zQIehcSPoG-11" vertex="1">
          <mxGeometry x="217" width="216" height="97" as="geometry">
            <mxRectangle width="216" height="97" as="alternateBounds" />
          </mxGeometry>
        </mxCell>
        <mxCell id="78rXr8i9M5zQIehcSPoG-14" value="" style="shape=partialRectangle;html=1;whiteSpace=wrap;connectable=0;fillColor=none;top=0;left=0;bottom=0;right=0;overflow=hidden;pointerEvents=1;" parent="78rXr8i9M5zQIehcSPoG-11" vertex="1">
          <mxGeometry x="433" width="217" height="97" as="geometry">
            <mxRectangle width="217" height="97" as="alternateBounds" />
          </mxGeometry>
        </mxCell>
        <mxCell id="FB47vTJPtIXqUbXMP6yT-1" value="Actor" style="shape=umlActor;verticalLabelPosition=bottom;verticalAlign=top;html=1;outlineConnect=0;" vertex="1" parent="1">
          <mxGeometry x="190" y="525" width="30" height="60" as="geometry" />
        </mxCell>
      </root>
    </mxGraphModel>
  </diagram>
</mxfile>
